<svg width="84" height="123" viewBox="0 0 84 123" fill="none" xmlns="http://www.w3.org/2000/svg">
<g clip-path="url(#clip0_12_2)">
<path fill-rule="evenodd" clip-rule="evenodd" d="M14.87 66.42H20.32V11.05C20.3226 8.12017 21.4877 5.3111 23.5594 3.23939C25.6311 1.16769 28.4402 0.00264784 31.37 0L36.32 0C39.2412 0.0158462 42.0374 1.18671 44.0983 3.25699C46.1592 5.32727 47.3174 8.1288 47.32 11.05V66.42H52.81C53.8223 66.4226 54.7924 66.826 55.5082 67.5418C56.224 68.2576 56.6274 69.2277 56.63 70.24V89.63C56.6274 90.6423 56.224 91.6124 55.5082 92.3282C54.7924 93.044 53.8223 93.4474 52.81 93.45H47.37V111.83C47.3542 114.743 46.1903 117.531 44.1308 119.591C42.0713 121.65 39.2825 122.814 36.37 122.83H31.37C28.4575 122.814 25.6687 121.65 23.6092 119.591C21.5497 117.531 20.3858 114.743 20.37 111.83V93.45H14.87C13.8586 93.4473 12.8895 93.0437 12.1753 92.3276C11.4611 91.6115 11.06 90.6414 11.06 89.63V87.84H5.8C5.03997 87.8395 4.28752 87.689 3.5857 87.3973C2.88388 87.1056 2.24649 86.6783 1.71 86.14C1.1694 85.6047 0.740009 84.9677 0.446537 84.2658C0.153065 83.5638 0.00130842 82.8108 0 82.05L0 77.82C0.000219867 77.0614 0.150543 76.3104 0.442307 75.6101C0.734072 74.9099 1.16151 74.2743 1.7 73.74C2.23436 73.1932 2.87189 72.7579 3.57567 72.4592C4.27945 72.1605 5.03548 72.0045 5.8 72H11.06V70.24C11.06 69.2286 11.4611 68.2585 12.1753 67.5424C12.8895 66.8263 13.8586 66.4226 14.87 66.42ZM24.87 66.42H30.46V43.93C30.46 39.55 37.23 39.55 37.23 43.93V66.42H42.8V11.05C42.7947 9.33302 42.1103 7.68787 40.8962 6.47378C39.6821 5.25968 38.037 4.57528 36.32 4.57H31.37C29.6546 4.58049 28.0125 5.26657 26.7995 6.47954C25.5866 7.69251 24.9005 9.33464 24.89 11.05V66.42H24.87ZM42.78 93.42H24.89V111.8C24.9005 113.515 25.5866 115.157 26.7995 116.37C28.0125 117.583 29.6546 118.27 31.37 118.28H36.32C38.037 118.275 39.6821 117.59 40.8962 116.376C42.1103 115.162 42.7947 113.517 42.8 111.8V93.45L42.78 93.42ZM55.14 17.64V14.11H62.33V17.64H55.14ZM69.78 22.52V5.5H77.25C77.8383 5.50274 78.4248 5.56641 79 5.69C79.6172 5.82362 80.1954 6.09734 80.69 6.49C81.2869 6.97185 81.74 7.60831 82 8.33C82.3534 9.37908 82.5127 10.4838 82.47 11.59C82.5002 12.7119 82.3413 13.8309 82 14.9C81.7669 15.6188 81.3538 16.2659 80.8 16.78C80.3459 17.1868 79.8005 17.4783 79.21 17.63C78.6618 17.7755 78.0971 17.8495 77.53 17.85C77.24 17.85 76.94 17.85 76.62 17.8C76.3 17.75 76 17.73 75.71 17.68L74.88 17.52L74.25 17.39V22.52H69.78ZM74.23 13.86H76.8C77.0636 13.875 77.3224 13.7851 77.52 13.61C77.7133 13.4011 77.8419 13.1405 77.89 12.86C77.9604 12.4572 77.9938 12.0489 77.99 11.64C78.0005 11.2393 77.9567 10.839 77.86 10.45C77.8024 10.1765 77.671 9.92406 77.48 9.72C77.3887 9.63626 77.2813 9.57184 77.1645 9.5306C77.0476 9.48936 76.9237 9.47215 76.8 9.48H74.23V13.86ZM55.14 49.86V46.29H62.33V49.82L55.14 49.86ZM69.78 54.7V37.7H77.05C77.7464 37.6963 78.4398 37.7906 79.11 37.98C79.7219 38.1504 80.2819 38.47 80.74 38.91C81.2315 39.3976 81.5956 39.9985 81.8 40.66C82.0803 41.5557 82.2088 42.4919 82.18 43.43C82.187 44.0381 82.1266 44.6452 82 45.24C81.9008 45.698 81.7358 46.1393 81.51 46.55C81.3188 46.8945 81.0683 47.2025 80.77 47.46C80.4916 47.7022 80.1902 47.9166 79.87 48.1L82.82 54.7H78.31L75.93 48.84H74.23V54.7H69.78ZM74.23 45.31H76.23C76.4482 45.3118 76.6649 45.2745 76.87 45.2C77.0515 45.1304 77.2129 45.017 77.34 44.87C77.4762 44.7005 77.572 44.5021 77.62 44.29C77.693 44.0094 77.7267 43.7199 77.72 43.43C77.7275 43.1433 77.6938 42.8571 77.62 42.58C77.5764 42.3783 77.4797 42.1919 77.34 42.04C77.208 41.9081 77.0471 41.8088 76.87 41.75C76.6626 41.6873 76.4467 41.657 76.23 41.66H74.23V45.31ZM69.69 86.88V69.88H73.22L79.22 79.37V69.85H83.67V86.85H80.12L74.12 77.36V86.85L69.69 86.88ZM69.78 119.06V102H77.3C78.338 101.969 79.3678 102.192 80.3 102.65C81.0771 103.079 81.726 103.707 82.18 104.47C82.6761 105.308 83.015 106.23 83.18 107.19C83.3693 108.29 83.463 109.404 83.46 110.52C83.5115 112.17 83.2815 113.817 82.78 115.39C82.4396 116.505 81.7355 117.473 80.78 118.14C79.7412 118.766 78.5421 119.076 77.33 119.03L69.78 119.06ZM74.23 115.06H76.84C77.0797 115.076 77.3202 115.044 77.547 114.965C77.7739 114.886 77.9824 114.762 78.16 114.6C78.5235 114.196 78.7539 113.69 78.82 113.15C78.9674 112.288 79.0343 111.414 79.02 110.54C79.0332 109.734 78.9831 108.928 78.87 108.13C78.8154 107.649 78.6659 107.183 78.43 106.76C78.28 106.487 78.0395 106.275 77.75 106.16C77.4581 106.056 77.1499 106.005 76.84 106.01H74.23V115.01V115.06ZM55.14 114.17V110.64H62.33V114.17H55.14ZM11.06 83.88V76H5.8C5.3169 75.9995 4.85319 76.19 4.51 76.53C4.17637 76.8758 3.99304 77.3395 4 77.82V82.05C3.99919 82.2893 4.04559 82.5264 4.13654 82.7478C4.22748 82.9691 4.36119 83.1704 4.53 83.34C4.69812 83.5115 4.89887 83.6477 5.12041 83.7404C5.34196 83.8331 5.57983 83.8806 5.82 83.88H11.06Z" fill="#183E6F"/>
</g>
<defs>
<clipPath id="clip0_12_2">
<rect width="83.65" height="122.88" fill="white"/>
</clipPath>
</defs>
</svg>
