<svg width="123" height="92" viewBox="0 0 123 92" fill="none" xmlns="http://www.w3.org/2000/svg">
<g clip-path="url(#clip0_12_13)">
<path fill-rule="evenodd" clip-rule="evenodd" d="M45.1299 35.29H45.0899C38.0799 34.5 28.6699 35.3 24.3099 35.29C17.0399 35.6 9.46994 41.91 5.01994 51.3C2.40994 56.81 1.71994 60.96 1.28994 66.85C0.419943 72.79 -0.0300568 78.67 -5.67572e-05 84.47C1.42994 93.5 12.8799 90.82 13.8499 84.47L15.2399 66.27C15.4499 63.52 15.6399 61.66 16.7499 59.04C17.2699 57.81 17.8999 56.76 18.6399 55.89L19.3299 89.14L18.9399 91.92H50.4299L50.0099 88.82L50.6199 52.15C53.8199 50.86 56.5799 50.26 59.0099 50.16C58.8899 50.41 58.7599 50.66 58.6399 50.91C56.0299 56.42 55.3399 60.57 54.9099 66.46C54.0499 72.39 53.5899 78.27 53.6199 84.07C55.0499 93.1 66.4999 90.42 67.4699 84.07L68.8599 65.87C69.0699 63.12 69.2599 61.26 70.3699 58.64C70.8899 57.41 71.5199 56.36 72.2599 55.49L72.9499 88.74L72.4899 91.98H104.11L103.63 88.43L104.12 59.81V60.37L104.22 55.5C104.96 56.37 105.58 57.42 106.11 58.65C107.23 61.27 107.41 63.13 107.62 65.88L109.01 84.08C110.35 92.76 122.86 92.93 122.86 84.08C122.89 78.27 122.44 72.4 121.57 66.47C121.14 60.58 120.45 56.43 117.84 50.92C113.27 41.27 107.36 36.16 98.3899 35.11C92.8599 34.66 83.5699 35.17 78.0299 35.01C76.6499 35.2 75.2899 35.48 73.9699 35.88C70.5199 35.4 65.9599 34.81 61.4099 34.79C54.7599 34.77 48.1499 35.91 45.1299 35.29ZM88.2999 0C97.3099 0 104.62 7.31 104.62 16.32C104.62 25.33 97.3099 32.64 88.2999 32.64C79.2899 32.64 71.9799 25.33 71.9799 16.32C71.9799 7.31 79.2899 0 88.2999 0ZM34.5599 0C43.5699 0 50.8799 7.31 50.8799 16.32C50.8799 25.33 43.5699 32.64 34.5599 32.64C25.5499 32.64 18.2399 25.33 18.2399 16.32C18.2399 7.31 25.5499 0 34.5599 0Z" fill="#183E6F"/>
</g>
<defs>
<clipPath id="clip0_12_13">
<rect width="122.88" height="91.99" fill="white"/>
</clipPath>
</defs>
</svg>
