<svg width="111" height="123" viewBox="0 0 111 123" fill="none" xmlns="http://www.w3.org/2000/svg">
<g clip-path="url(#clip0_12_4)">
<path fill-rule="evenodd" clip-rule="evenodd" d="M99.08 20.2C99.35 20.33 99.59 20.5 99.82 20.72C99.88 20.78 99.93 20.84 99.98 20.9C102.87 23.19 105.76 25.78 107.86 28.9C110.18 32.35 111.47 36.34 110.69 41.07C110.36 43.05 109.61 44.78 108.47 46.31C107.65 47.4 106.65 48.36 105.47 49.2C105.41 50.73 105.39 52.23 105.39 53.72C105.4 55.63 105.46 57.6 105.57 59.62C105.82 64.36 106.53 69.14 107.24 73.88C108 78.98 108.76 84.04 108.96 89.31C109.23 96.06 108.43 101.61 106.2 105.53C103.72 109.91 99.69 112.25 93.75 112.04C86.66 111.91 82.3 107.93 80.33 100.58C78.61 94.15 78.87 84.97 80.82 73.42C80.76 64.27 79.57 57.34 77.21 52.67C75.67 49.62 73.58 47.6 70.94 46.64V106.56C71.8 106.97 72.58 107.53 73.24 108.2C74.76 109.72 75.71 111.83 75.71 114.15V120.13C75.71 121.64 74.48 122.87 72.97 122.87H2.74C1.23 122.87 0 121.64 0 120.13V114.15C0 111.83 0.95 109.73 2.47 108.2C2.94 107.73 3.47 107.31 4.04 106.96V14.52C4.04 10.52 5.67 6.89 8.3 4.26C10.93 1.63 14.56 0 18.56 0H56.34C60.35 0 64 1.64 66.64 4.28C69.28 6.92 70.92 10.57 70.92 14.59V40.95C75.78 42.01 79.49 45.12 82.07 50.22C84.84 55.69 86.22 63.53 86.26 73.68C86.26 73.84 86.25 74 86.22 74.15H86.23C84.38 85.02 84.08 93.5 85.6 99.17C86.87 103.94 89.55 106.52 93.84 106.58H93.89C97.55 106.7 99.98 105.36 101.41 102.83C103.1 99.85 103.69 95.28 103.46 89.52C103.27 84.64 102.52 79.67 101.78 74.67C101.06 69.85 100.34 64.99 100.07 59.89C99.96 57.88 99.9 55.83 99.89 53.71C99.88 52.03 99.91 50.37 99.98 48.74C94.87 44.26 91.76 39.78 90.8 35.32C89.89 31.09 90.85 27.03 93.8 23.15C91.55 21.61 89.26 20.35 86.94 19.34C83.77 17.96 83.75 17.84 80.43 17.3C78.94 17.06 77.93 15.65 78.17 14.16C78.41 12.67 79.82 11.66 81.31 11.9C85.07 12.51 85.52 12.75 89.13 14.32C92.56 15.82 95.87 17.75 99.08 20.2ZM98.17 26.5C96.26 29.06 95.62 31.62 96.18 34.2C96.85 37.32 99.18 40.64 103.06 44.15C103.45 43.8 103.8 43.43 104.09 43.04C104.7 42.23 105.11 41.28 105.28 40.2C105.8 37.04 104.91 34.33 103.31 31.95C101.99 29.98 100.15 28.16 98.17 26.5ZM21.86 12.54H53.68C55.33 12.54 56.83 13.21 57.92 14.3C57.99 14.38 58.07 14.45 58.14 14.54C59.1 15.61 59.69 17.02 59.69 18.54V38.84C59.69 40.49 59.02 42 57.93 43.08C56.85 44.16 55.35 44.84 53.69 44.84H21.86C20.22 44.84 18.73 44.16 17.63 43.08L17.62 43.09C16.54 42.01 15.86 40.5 15.86 38.85V18.53C15.86 16.88 16.53 15.38 17.62 14.29C17.7 14.22 17.77 14.14 17.86 14.08C18.93 13.12 20.33 12.54 21.86 12.54ZM68.43 111.48C68.35 111.49 68.28 111.49 68.2 111.49H7.26C6.92 111.64 6.61 111.85 6.35 112.11C5.82 112.64 5.49 113.37 5.49 114.18V117.42H70.23V114.18C70.23 113.38 69.9 112.65 69.37 112.11C69.1 111.84 68.78 111.63 68.43 111.48Z" fill="#183E6F"/>
</g>
<defs>
<clipPath id="clip0_12_4">
<rect width="110.92" height="122.88" fill="white"/>
</clipPath>
</defs>
</svg>
