<svg width="91" height="123" viewBox="0 0 91 123" fill="none" xmlns="http://www.w3.org/2000/svg">
<g clip-path="url(#clip0_12_7)">
<path fill-rule="evenodd" clip-rule="evenodd" d="M58.7299 0H31.2799C30.5599 0 29.8599 0.14 29.2099 0.42C28.5499 0.69 27.9499 1.1 27.4499 1.59L27.4299 1.61C26.9399 2.11 26.5399 2.7 26.2699 3.35C26.0099 3.98 25.8499 4.68 25.8499 5.42V17.43C25.8499 18.91 26.4599 20.27 27.4399 21.25L27.4599 21.28C28.4299 22.25 29.7899 22.85 31.2599 22.85H58.7099C60.1899 22.85 61.5499 22.24 62.5299 21.26L62.5499 21.24C63.5199 20.26 64.1199 18.91 64.1199 17.44V5.41C64.1199 4.69 63.9799 3.98 63.6999 3.34C63.4299 2.68 63.0199 2.08 62.5099 1.58C62.0099 1.08 61.4099 0.68 60.7499 0.41C60.1599 0.14 59.4699 0 58.7299 0ZM76.8399 88.72V43.91C76.8399 41.88 76.4299 39.95 75.6999 38.18C74.9399 36.34 73.8199 34.69 72.4299 33.3C71.0399 31.91 69.3899 30.79 67.5499 30.03C65.7799 29.3 63.8499 28.89 61.8199 28.89H27.5399C25.5099 28.89 23.5799 29.3 21.8099 30.03C19.9699 30.8 18.3199 31.91 16.9299 33.3C15.5399 34.69 14.4199 36.34 13.6599 38.18C12.9299 39.95 12.5199 41.88 12.5199 43.91V88.58C13.8899 89.74 15.2499 91.26 16.5299 93.17C17.6999 94.92 18.7999 97 19.7999 99.41C23.5199 97.53 27.3699 96.14 31.3299 95.22C35.4099 94.27 39.6099 93.82 43.9399 93.84C48.2499 93.86 52.6699 94.37 57.1999 95.33C61.6099 96.27 66.1299 97.64 70.7399 99.44C71.2099 97.27 71.9699 95.29 72.9499 93.57C74.0099 91.63 75.3599 90 76.8399 88.72ZM25.4799 50.62L25.4399 50.56C25.1099 50.03 24.9999 49.41 25.1299 48.84C25.2499 48.27 25.5799 47.73 26.0999 47.38L26.1599 47.34C26.6899 47.01 27.3099 46.9 27.8799 47.03C28.4699 47.16 29.0099 47.5 29.3599 48.03C31.0399 50.59 32.5699 53.27 33.9099 56.08C35.2499 58.9 36.4099 61.86 37.3599 64.99C38.3099 68.11 39.0399 71.39 39.5499 74.84C40.0499 78.29 40.3199 81.92 40.3299 85.76C40.3299 86.41 40.0699 86.99 39.6399 87.41C39.2199 87.84 38.6199 88.1 37.9899 88.1C37.3399 88.1 36.7599 87.84 36.3399 87.41C35.9099 86.98 35.6499 86.4 35.6499 85.75C35.6399 82.16 35.3899 78.77 34.9199 75.53C34.4499 72.3 33.7599 69.25 32.8799 66.34C31.9999 63.44 30.9199 60.69 29.6799 58.07C28.4499 55.46 27.0399 52.98 25.4799 50.62ZM60.7399 48.02C61.0999 47.48 61.6399 47.13 62.2299 47.02C62.8199 46.89 63.4399 47 63.9799 47.34L64.0099 47.36C64.5399 47.72 64.8899 48.25 64.9999 48.83C65.1099 49.42 65.0199 50.04 64.6799 50.58L64.6599 50.6C63.0999 52.96 61.6899 55.45 60.4499 58.08C59.2099 60.7 58.1299 63.45 57.2499 66.35C56.3699 69.26 55.6799 72.31 55.2099 75.54C54.7399 78.77 54.4899 82.17 54.4699 85.76C54.4699 86.41 54.2099 86.99 53.7799 87.41C53.3499 87.84 52.7699 88.1 52.1199 88.1C51.4699 88.1 50.8899 87.84 50.4599 87.41L50.4399 87.39C50.0299 86.97 49.7699 86.39 49.7699 85.75C49.7799 81.92 50.0499 78.29 50.5599 74.83C51.0599 71.38 51.7999 68.1 52.7399 64.98C53.6899 61.85 54.8399 58.88 56.1799 56.07C57.5399 53.25 59.0599 50.58 60.7399 48.02ZM9.3399 93.15C9.1399 93.08 8.9599 92.97 8.7999 92.86C8.6299 92.73 8.4799 92.59 8.3399 92.43C7.9799 92.21 7.6399 92.02 7.2899 91.88C6.9299 91.72 6.5799 91.61 6.2299 91.52C5.8199 91.43 5.4299 91.39 5.0499 91.41C4.6699 91.42 4.3099 91.49 3.9599 91.61C3.5799 91.74 3.2299 91.93 2.8799 92.2C2.5399 92.46 2.2199 92.77 1.9199 93.16C0.2599 95.3 -0.1501 98 0.0398996 100.84C0.2299 103.73 1.0499 106.78 1.7799 109.56L1.8099 109.7C1.9999 110.43 2.1899 111.13 2.3099 111.61L4.1299 118.81C4.3899 119.87 4.5999 120.84 4.7699 121.63L4.7799 121.66C4.8799 122.19 4.9499 122.57 4.9899 122.81C4.9899 122.84 4.9899 122.85 4.9799 122.87C4.9999 122.86 5.0399 122.85 5.0899 122.85C5.3999 122.83 5.9399 122.79 6.7599 122.78L8.2399 122.76H82.6099L82.6899 122.77H83.2399C84.1399 122.77 84.7099 122.8 85.0499 122.82C85.0999 122.82 85.1399 122.83 85.1899 122.85V122.81C85.2299 122.61 85.2899 122.29 85.3999 121.84L85.4099 121.82C85.5899 121.08 85.8199 120.15 86.1299 119.11L88.3099 111.81C89.7099 107.14 90.3399 103.33 90.3799 100.3C90.4299 96.9 89.7699 94.5 88.6799 92.96C88.2999 92.44 87.8699 92.03 87.3999 91.73C86.9099 91.42 86.3899 91.22 85.8299 91.13C85.2399 91.04 84.5999 91.06 83.9599 91.19C83.2999 91.33 82.6199 91.57 81.9399 91.92C80.1299 92.85 78.4199 94.49 77.1299 96.71C75.9699 98.7 75.1699 101.15 74.9599 103.99L74.9499 104.05C74.9399 104.15 74.9199 104.26 74.8999 104.36V104.37C74.8699 104.49 74.8399 104.6 74.7899 104.71C74.5399 105.31 74.0699 105.74 73.5099 105.97C72.9599 106.2 72.3199 106.21 71.7199 105.96C66.8199 103.89 62.0399 102.31 57.3999 101.24C52.7699 100.17 48.2699 99.62 43.9199 99.59C39.6099 99.57 35.4299 100.06 31.3999 101.1C27.3599 102.13 23.4599 103.71 19.7099 105.84L19.5199 105.93C19.4599 105.96 19.3799 105.99 19.3199 106.01L19.2999 106.02C18.6899 106.22 18.0699 106.17 17.5299 105.91C16.9899 105.65 16.5499 105.18 16.3399 104.57C15.3799 101.81 14.2999 99.52 13.1499 97.65C11.9199 95.71 10.6299 94.2 9.3399 93.15Z" fill="#183E6F"/>
</g>
<defs>
<clipPath id="clip0_12_7">
<rect width="90.4" height="122.88" fill="white"/>
</clipPath>
</defs>
</svg>
